<?xml version="1.0" encoding="UTF-8" ?>
<!DOCTYPE svg PUBLIC "-//W3C//DTD SVG 1.1//EN" "http://www.w3.org/Graphics/SVG/1.1/DTD/svg11.dtd">
<svg width="64pt" height="64pt" viewBox="0 0 64 64" version="1.1" xmlns="http://www.w3.org/2000/svg">
<path fill="#fefffe" stroke="#fefffe" stroke-width="0.09375" d=" M 0.0 0.0 L 64.0 0.0 L 64.0 64.0 L 0.0 64.0 L 0.0 0.0 Z" />
<path fill="#32662f" stroke="#32662f" stroke-width="0.09375" d=" M 23.8 4.0 C 26.1 -0.2 32.6 3.4 34.2 6.9 C 38.7 7.3 42.7 -0.1 46.2 5.4 C 40.3 3.8 41.1 8.5 43.4 12.3 C 40.8 13.3 41.3 9.9 40.7 8.4 C 37.9 9.0 35.0 9.5 33.2 11.9 C 34.9 7.4 28.0 1.8 24.9 6.1 C 24.7 5.8 24.4 5.1 24.2 4.8 L 23.8 4.0 Z" />
<path fill="#91ce81" stroke="#91ce81" stroke-width="0.09375" d=" M 16.3 6.2 C 15.0 3.2 21.9 4.8 23.8 4.0 L 24.2 4.8 C 21.6 5.3 18.9 5.8 16.3 6.2 Z" />
<path fill="#319936" stroke="#319936" stroke-width="0.09375" d=" M 24.9 6.1 C 28.0 1.8 34.9 7.4 33.2 11.9 C 35.0 9.5 37.9 9.0 40.7 8.4 C 41.3 9.9 40.8 13.3 43.4 12.3 C 44.3 12.5 45.2 12.8 46.1 13.1 C 45.0 14.4 43.2 15.3 42.9 17.1 C 45.8 16.1 48.3 12.5 50.4 16.7 C 51.1 21.3 43.5 21.8 42.1 24.7 C 45.0 24.5 49.3 27.0 44.5 28.4 C 35.2 30.8 42.7 29.9 46.1 31.1 C 45.7 32.3 45.3 33.5 44.9 34.7 C 42.1 34.5 39.4 37.7 37.1 34.9 C 35.3 33.1 34.8 34.8 34.7 36.7 C 32.5 38.0 30.4 39.4 28.3 40.9 C 27.9 40.8 27.2 40.8 26.9 40.7 C 25.9 40.5 24.9 40.2 23.9 40.0 C 24.3 38.3 24.6 36.6 24.9 34.9 C 22.6 34.9 21.9 37.5 20.7 39.0 C 19.2 38.5 17.6 38.1 16.0 37.8 C 15.8 37.6 15.6 37.2 15.4 36.9 C 15.9 35.9 15.5 34.9 15.1 34.0 C 15.2 32.6 15.3 31.3 15.3 30.0 C 16.9 32.3 18.9 31.3 20.2 29.3 C 17.7 28.7 15.3 27.7 12.7 27.6 C 9.3 27.3 10.8 23.6 10.1 21.2 C 10.9 21.1 12.4 21.0 13.2 21.0 C 16.3 20.7 18.5 18.7 14.8 17.1 C 16.5 13.9 18.7 11.0 20.8 8.0 C 18.4 6.4 16.2 8.8 13.8 8.4 C 14.6 7.7 15.4 6.9 16.3 6.2 C 18.9 5.8 21.6 5.3 24.2 4.8 C 24.4 5.1 24.7 5.8 24.9 6.1 C 20.8 10.0 26.5 11.5 24.9 6.1 Z" />
<path fill="#5fab55" stroke="#5fab55" stroke-width="0.09375" d=" M 43.4 12.3 C 41.1 8.5 40.3 3.8 46.2 5.4 C 47.6 5.3 48.3 6.7 48.0 8.0 C 47.9 8.8 47.9 10.3 47.9 11.1 C 45.3 7.3 46.9 10.9 46.1 13.1 C 45.2 12.8 44.3 12.5 43.4 12.3 Z" />
<path fill="#1f511f" stroke="#1f511f" stroke-width="0.09375" d=" M 24.9 6.1 C 20.8 10.0 26.5 11.5 24.9 6.1 Z" />
<path fill="#6dbb61" stroke="#6dbb61" stroke-width="0.09375" d=" M 13.8 8.4 C 16.2 8.8 18.4 6.4 20.8 8.0 C 18.7 11.0 16.5 13.9 14.8 17.1 C 12.0 15.4 13.3 11.9 12.9 9.1 C 13.1 9.0 13.5 8.6 13.8 8.4 Z" />
<path fill="#8dd07c" stroke="#8dd07c" stroke-width="0.09375" d=" M 48.0 8.0 C 54.1 11.6 53.8 21.4 53.8 28.3 C 51.3 26.3 48.0 22.0 51.1 19.1 C 53.4 16.3 48.9 13.7 47.9 11.1 C 47.9 10.3 47.9 8.8 48.0 8.0 Z" />
<path fill="#b9d8ac" stroke="#b9d8ac" stroke-width="0.09375" d=" M 11.7 17.0 C 8.3 17.9 11.0 8.8 12.0 9.0 C 11.8 11.7 11.5 14.3 11.7 17.0 Z" />
<path fill="#365c31" stroke="#365c31" stroke-width="0.09375" d=" M 12.0 9.0 L 12.9 9.1 C 13.3 11.9 12.0 15.4 14.8 17.1 C 18.5 18.7 16.3 20.7 13.2 21.0 C 14.0 19.3 12.7 18.2 11.7 17.0 C 11.5 14.3 11.8 11.7 12.0 9.0 Z" />
<path fill="#285926" stroke="#285926" stroke-width="0.09375" d=" M 46.1 13.1 C 46.9 10.9 45.3 7.3 47.9 11.1 C 48.9 13.7 53.4 16.3 51.1 19.1 C 48.0 22.0 51.3 26.3 53.8 28.3 C 53.9 28.7 53.9 29.6 53.9 30.0 C 51.9 26.5 46.9 26.9 46.1 31.1 C 42.7 29.9 35.2 30.8 44.5 28.4 C 49.3 27.0 45.0 24.5 42.1 24.7 C 43.5 21.8 51.1 21.3 50.4 16.7 C 48.3 12.5 45.8 16.1 42.9 17.1 C 43.2 15.3 45.0 14.4 46.1 13.1 Z" />
<path fill="#124416" stroke="#124416" stroke-width="0.09375" d=" M 19.1 15.8 C 22.3 18.6 21.6 23.8 26.6 25.3 C 25.7 29.1 21.8 23.1 20.0 22.0 C 16.3 20.2 21.5 19.4 19.1 15.8 Z" />
<path fill="#acdb9c" stroke="#acdb9c" stroke-width="0.09375" d=" M 14.0 28.9 C 8.6 31.7 6.9 21.8 10.1 21.2 C 10.8 23.6 9.3 27.3 12.7 27.6 C 13.1 27.9 13.7 28.6 14.0 28.9 Z" />
<path fill="#152d14" stroke="#152d14" stroke-width="0.09375" d=" M 12.7 27.6 C 15.3 27.7 17.7 28.7 20.2 29.3 C 18.9 31.3 16.9 32.3 15.3 30.0 C 15.0 29.7 14.3 29.2 14.0 28.9 C 13.7 28.6 13.1 27.9 12.7 27.6 Z" />
<path fill="#7eba71" stroke="#7eba71" stroke-width="0.09375" d=" M 46.1 31.1 C 46.9 26.9 51.9 26.5 53.9 30.0 C 55.8 37.6 44.8 39.6 41.0 38.6 C 39.6 33.1 52.9 39.4 44.9 34.7 C 45.3 33.5 45.7 32.3 46.1 31.1 Z" />
<path fill="#a6d395" stroke="#a6d395" stroke-width="0.09375" d=" M 15.4 36.9 C 13.5 36.8 12.2 33.0 15.1 34.0 C 15.5 34.9 15.9 35.9 15.4 36.9 Z" />
<path fill="#26481e" stroke="#26481e" stroke-width="0.09375" d=" M 34.7 36.7 C 34.8 34.8 35.3 33.1 37.1 34.9 C 39.4 37.7 42.1 34.5 44.9 34.7 C 52.9 39.4 39.6 33.1 41.0 38.6 C 35.6 36.0 35.5 42.1 35.7 46.3 C 35.2 43.1 35.0 39.9 34.7 36.7 Z" />
<path fill="#1d381a" stroke="#1d381a" stroke-width="0.09375" d=" M 20.7 39.0 C 21.9 37.5 22.6 34.9 24.9 34.9 C 24.6 36.6 24.3 38.3 23.9 40.0 C 22.8 39.7 21.8 39.4 20.7 39.0 Z" />
<path fill="#b11d16" stroke="#b11d16" stroke-width="0.09375" d=" M 28.3 40.9 C 30.4 39.4 32.5 38.0 34.7 36.7 C 35.0 39.9 35.2 43.1 35.7 46.3 C 36.9 52.9 41.5 59.5 48.8 59.3 C 46.8 60.9 38.7 60.7 36.2 56.9 C 35.7 53.8 30.4 50.9 33.1 55.8 C 33.1 58.1 34.7 61.5 32.3 62.9 C 31.5 61.2 30.6 59.6 29.8 57.9 C 29.4 56.2 29.6 54.6 29.8 53.0 C 27.9 54.5 26.4 56.7 23.9 57.1 C 27.2 52.3 28.4 46.8 28.3 40.9 Z" />
<path fill="#9bd28a" stroke="#9bd28a" stroke-width="0.09375" d=" M 16.0 37.8 C 17.6 38.1 19.2 38.5 20.7 39.0 C 21.8 39.4 22.8 39.7 23.9 40.0 C 24.9 40.2 25.9 40.5 26.9 40.7 L 26.9 41.7 C 23.3 44.0 18.8 40.2 16.0 37.8 Z" />
<path fill="#5c0a08" stroke="#5c0a08" stroke-width="0.09375" d=" M 26.9 40.7 C 27.2 40.8 27.9 40.8 28.3 40.9 C 28.4 46.8 27.2 52.3 23.9 57.1 C 26.4 56.7 27.9 54.5 29.8 53.0 C 29.6 54.6 29.4 56.2 29.8 57.9 C 29.1 57.9 27.8 58.1 27.2 58.2 C 25.2 58.5 23.3 59.2 21.3 59.8 C 19.1 60.3 17.6 59.8 18.5 57.3 C 24.6 54.9 28.2 48.1 26.9 41.7 L 26.9 40.7 Z" />
<path fill="#4f0f0b" stroke="#4f0f0b" stroke-width="0.09375" d=" M 33.1 55.8 C 30.4 50.9 35.7 53.8 36.2 56.9 C 35.1 56.6 34.1 56.2 33.1 55.8 Z" />
<path fill="#bf0b0b" stroke="#bf0b0b" stroke-width="0.09375" d=" M 21.3 59.8 C 23.3 59.2 25.2 58.5 27.2 58.2 C 26.0 59.5 19.2 64.3 21.3 59.8 Z" />
</svg>
