<?xml version="1.0" encoding="UTF-8" standalone="no"?>
<!-- Created with Inkscape (http://www.inkscape.org/) -->

<svg
   xmlns:osb="http://www.openswatchbook.org/uri/2009/osb"
   xmlns:dc="http://purl.org/dc/elements/1.1/"
   xmlns:cc="http://creativecommons.org/ns#"
   xmlns:rdf="http://www.w3.org/1999/02/22-rdf-syntax-ns#"
   xmlns:svg="http://www.w3.org/2000/svg"
   xmlns="http://www.w3.org/2000/svg"
   xmlns:xlink="http://www.w3.org/1999/xlink"
   xmlns:sodipodi="http://sodipodi.sourceforge.net/DTD/sodipodi-0.dtd"
   xmlns:inkscape="http://www.inkscape.org/namespaces/inkscape"
   width="744.09448819"
   height="1052.3622047"
   id="svg182658"
   version="1.1"
   inkscape:version="0.48.2 r9819"
   sodipodi:docname="New document 15">
  <defs
     id="defs182660">
    <linearGradient
       id="linearGradient183507"
       osb:paint="solid">
      <stop
         style="stop-color:#000000;stop-opacity:1;"
         offset="0"
         id="stop183509" />
    </linearGradient>
    <linearGradient
       id="linearGradient183491"
       osb:paint="solid">
      <stop
         style="stop-color:#004600;stop-opacity:1;"
         offset="0"
         id="stop183493" />
    </linearGradient>
    <linearGradient
       inkscape:collect="always"
       xlink:href="#linearGradient183491"
       id="linearGradient183495"
       x1="148.07143"
       y1="528.63009"
       x2="265.5"
       y2="528.63009"
       gradientUnits="userSpaceOnUse" />
    <linearGradient
       inkscape:collect="always"
       xlink:href="#linearGradient183491"
       id="linearGradient183511"
       x1="408.07144"
       y1="545.29187"
       x2="581.92859"
       y2="545.29187"
       gradientUnits="userSpaceOnUse" />
    <linearGradient
       inkscape:collect="always"
       xlink:href="#linearGradient183491"
       id="linearGradient183513"
       x1="372.24628"
       y1="230.35054"
       x2="389.40872"
       y2="230.35054"
       gradientUnits="userSpaceOnUse" />
    <linearGradient
       inkscape:collect="always"
       xlink:href="#linearGradient183491"
       id="linearGradient183515"
       x1="272.24118"
       y1="336.1582"
       x2="345.4671"
       y2="336.1582"
       gradientUnits="userSpaceOnUse" />
  </defs>
  <sodipodi:namedview
     id="base"
     pagecolor="#ffffff"
     bordercolor="#666666"
     borderopacity="1.0"
     inkscape:pageopacity="0.0"
     inkscape:pageshadow="2"
     inkscape:zoom="0.35"
     inkscape:cx="130.42099"
     inkscape:cy="523.79437"
     inkscape:document-units="px"
     inkscape:current-layer="layer1"
     showgrid="false"
     showguides="true"
     inkscape:guide-bbox="true"
     inkscape:window-width="1135"
     inkscape:window-height="789"
     inkscape:window-x="0"
     inkscape:window-y="0"
     inkscape:window-maximized="0" />
  <metadata
     id="metadata182663">
    <rdf:RDF>
      <cc:Work
         rdf:about="">
        <dc:format>image/svg+xml</dc:format>
        <dc:type
           rdf:resource="http://purl.org/dc/dcmitype/StillImage" />
        <dc:title></dc:title>
      </cc:Work>
    </rdf:RDF>
  </metadata>
  <g
     inkscape:label="Layer 1"
     inkscape:groupmode="layer"
     id="layer1">
    <g
       id="g183517"
       inkscape:export-filename="/tmp/out.png"
       inkscape:export-xdpi="300.01355"
       inkscape:export-ydpi="300.01355">
      <g
         inkscape:export-ydpi="300.01355"
         inkscape:export-xdpi="300.01355"
         inkscape:export-filename="/tmp/out.png"
         id="g182703">
        <path
           inkscape:connector-curvature="0"
           id="path103895"
           style="fill:#20310f;fill-opacity:1;fill-rule:nonzero;stroke:none"
           d="m 386.79355,400.82488 c -4.80429,-13.97851 -58.25099,-102.00225 47.68677,-163.61539 -107.81432,52.64744 -74.28849,141.68763 -62.39504,173.14578 9.24372,-5.54274 14.70827,-9.53039 14.70827,-9.53039" />
        <path
           inkscape:connector-curvature="0"
           id="path103897"
           style="fill:#523617;fill-opacity:1;fill-rule:nonzero;stroke:none"
           d="m 386.79355,400.82488 c -8.07087,-8.23594 -66.20024,-99.06581 47.68677,-163.61539 -107.81432,52.64744 -74.28849,141.68763 -62.39504,173.14578 9.24372,-5.54274 14.70827,-9.53039 14.70827,-9.53039" />
        <path
           inkscape:connector-curvature="0"
           id="path103899"
           style="fill:#715132;fill-opacity:1;fill-rule:nonzero;stroke:none"
           d="m 386.79355,400.82488 c -15.17741,7.63647 -67.25145,-104.53905 47.68677,-163.61539 -110.31636,54.09829 -74.28849,141.68763 -62.39504,173.14578 9.24372,-5.54274 14.70827,-9.53039 14.70827,-9.53039" />
        <path
           inkscape:connector-curvature="0"
           id="path103901"
           style="fill:#20310f;fill-opacity:1;fill-rule:nonzero;stroke:none"
           d="m 322.11366,567.92402 c 11.42431,-29.53816 133.165,-213.65651 -88.67533,-354.35376 226.5925,121.62776 147.46496,309.57738 119.42977,375.96876 -19.38225,-12.61454 -30.75444,-21.615 -30.75444,-21.615" />
        <path
           inkscape:connector-curvature="0"
           id="path103903"
           style="fill:#523617;fill-opacity:1;fill-rule:nonzero;stroke:none"
           d="m 322.11366,567.92402 c 17.94009,-16.96707 149.95833,-206.72373 -88.67533,-354.35376 226.5925,121.62776 147.46496,309.57738 119.42977,375.96876 -19.38225,-12.61454 -30.75444,-21.615 -30.75444,-21.615" />
        <path
           inkscape:connector-curvature="0"
           id="path103905"
           style="fill:#715132;fill-opacity:1;fill-rule:nonzero;stroke:none"
           d="m 322.11366,567.92402 c 31.90122,17.63602 152.65151,-218.36525 -88.67533,-354.35376 231.83988,124.95515 147.46496,309.57738 119.42977,375.96876 -19.38225,-12.61454 -30.75444,-21.615 -30.75444,-21.615" />
        <path
           inkscape:connector-curvature="0"
           id="path103907"
           style="fill:#20310f;fill-opacity:1;fill-rule:nonzero;stroke:none"
           d="m 288.49226,629.32866 c -3.06675,-29.7293 20.24234,-236.77448 -226.019101,-259.67524 242.100031,4.83905 256.165421,196.7937 261.021831,264.63591 -21.64105,-2.29354 -35.00273,-4.96067 -35.00273,-4.96067" />
        <path
           inkscape:connector-curvature="0"
           id="path103909"
           style="fill:#523617;fill-opacity:1;fill-rule:nonzero;stroke:none"
           d="m 288.49226,629.32866 c 7.75813,-21.97119 37.27891,-238.13845 -226.019101,-259.67524 242.100031,4.83905 256.165421,196.7937 261.021831,264.63591 -21.64105,-2.29354 -35.00273,-4.96067 -35.00273,-4.96067" />
        <path
           inkscape:connector-curvature="0"
           id="path103911"
           style="fill:#715132;fill-opacity:1;fill-rule:nonzero;stroke:none"
           d="m 288.49226,629.32866 c 34.25559,1.10333 34.57704,-249.07626 -226.019101,-259.67524 247.929481,5.37769 256.165421,196.7937 261.021831,264.63591 -21.64105,-2.29354 -35.00273,-4.96067 -35.00273,-4.96067" />
        <path
           inkscape:connector-curvature="0"
           id="path103913"
           style="fill:#20310f;fill-opacity:1;fill-rule:nonzero;stroke:none"
           d="M 735.43081,340.41064 C 253.79362,393.70965 245.8183,768.31442 248.0076,917.97737 c 3.95291,-2.6063 8.45313,-4.27434 13.37037,-4.50891 4.82167,-3.91815 10.62505,-6.41152 17.09738,-6.41152 11.21583,0 21.8235,3.32739 29.3123,10.19067 7.38454,-1.93735 11.39826,-3.11889 11.39826,-3.11889 0.834,-61.46545 -84.97437,-481.0725 416.2449,-573.71808" />
        <path
           inkscape:connector-curvature="0"
           id="path103915"
           style="fill:#523617;fill-opacity:1;fill-rule:nonzero;stroke:none"
           d="M 735.43081,340.41064 C 253.79362,393.70965 245.8183,768.31442 248.0076,917.97737 c 3.95291,-2.6063 8.45313,-4.27434 13.37037,-4.50891 4.82167,-3.91815 10.62505,-6.41152 17.09738,-6.41152 11.21583,0 21.8235,3.32739 29.3123,10.19067 7.38454,-1.93735 11.39826,-3.11889 11.39826,-3.11889 -20.01646,-43.53405 -120.23772,-480.73367 416.2449,-573.71808" />
        <path
           inkscape:connector-curvature="0"
           id="path103917"
           style="fill:#715132;fill-opacity:1;fill-rule:nonzero;stroke:none"
           d="m 735.43081,340.41064 c -493.16578,55.43619 -490.27277,428.0428 -487.45795,577.58411 3.97027,-2.61499 9.62596,-0.46914 14.55189,-0.7124 4.82167,-3.91815 10.25148,-5.56881 16.72381,-5.56881 11.20712,0 21.05029,-1.32921 28.53909,5.53407 7.38454,-1.93735 11.39826,-3.11889 11.39826,-3.11889 -70.17053,8.62689 -116.64102,-503.64312 416.2449,-573.71808" />
        <path
           inkscape:connector-curvature="0"
           id="path103919"
           style="fill:#5d9217;fill-opacity:1;fill-rule:nonzero;stroke:none"
           d="m 407.62665,534.42426 c 73.1504,160.25326 243.31631,47.69546 310.37664,116.50202 C 676.27628,474.53128 492.36645,428.33881 407.62665,534.42426" />
        <path
           inkscape:connector-curvature="0"
           id="path103921"
           style="fill:#5d9217;fill-opacity:1;fill-rule:nonzero;stroke:none"
           d="M 266.5819,547.6122 C 155.95277,626.31403 85.869127,485.55597 14.569201,505.58981 110.46399,403.99589 250.99618,444.14172 266.5819,547.6122" />
        <path
           inkscape:connector-curvature="0"
           id="path103923"
           style="fill:#5d9217;fill-opacity:1;fill-rule:nonzero;stroke:none"
           d="m 345.17949,351.67857 c -65.57474,45.01964 -105.26014,-38.1216 -147.23039,-27.08824 57.18242,-58.56375 139.1074,-33.68219 147.23039,27.08824" />
        <path
           inkscape:connector-curvature="0"
           id="path103925"
           style="fill:#5d9217;fill-opacity:1;fill-rule:nonzero;stroke:none"
           d="m 372.61523,260.02337 c 72.55964,-12.65797 45.00228,-93.39272 79.92682,-113.26149 -75.7741,-1.74623 -113.8957,67.77271 -79.92682,113.26149" />
      </g>
      <path
         sodipodi:nodetypes="cc"
         inkscape:connector-curvature="0"
         id="path182721"
         d="m 265,546.6479 c 0,0 -52.14286,-50 -133.57143,-45.71429"
         style="fill:none;stroke:url(#linearGradient183495);stroke-width:1px;stroke-linecap:butt;stroke-linejoin:miter;stroke-opacity:1" />
      <path
         sodipodi:nodetypes="cc"
         inkscape:connector-curvature="0"
         id="path183497"
         d="m 408.57143,533.79075 c 0,0 68.57142,-24.28571 172.85714,28.57143"
         style="fill:none;stroke:url(#linearGradient183511);stroke-width:1px;stroke-linecap:butt;stroke-linejoin:miter;stroke-opacity:1" />
      <path
         inkscape:connector-curvature="0"
         id="path183503"
         d="m 344.96709,350.81124 c -4.54568,-3.53553 -41.92133,-35.35534 -72.2259,-28.28427"
         style="fill:none;stroke:url(#linearGradient183515);stroke-width:1px;stroke-linecap:butt;stroke-linejoin:miter;stroke-opacity:1" />
      <path
         inkscape:connector-curvature="0"
         id="path183505"
         d="m 372.74629,259.39243 c 0,0 1.51523,-39.39595 16.16244,-58.08377"
         style="fill:none;stroke:url(#linearGradient183513);stroke-width:1px;stroke-linecap:butt;stroke-linejoin:miter;stroke-opacity:1" />
    </g>
  </g>
</svg>
